<svg xmlns="http://www.w3.org/2000/svg" viewBox="0 0 32 32" fill="none">
  <defs>
    <linearGradient id="favBg" x1="0" y1="0" x2="32" y2="32" gradientUnits="userSpaceOnUse">
      <stop offset="0%" stop-color="#0288D1"/>
      <stop offset="100%" stop-color="#29B6F6"/>
    </linearGradient>
  </defs>

  <rect width="32" height="32" rx="8" fill="url(#favBg)"/>

  <!-- Simplified R -->
  <path d="M9 25V8h7c2 0 3.5.5 4.5 1.5s1.5 2.2 1.5 3.7c0 1.3-.4 2.4-1.2 3.3-.8.9-1.8 1.4-3.2 1.6L22 25h-4l-3.5-7H13v7H9z" fill="white"/>
  <path d="M13 11v4h3c1 0 1.8-.3 2.3-.8.5-.5.7-1.1.7-1.7 0-.7-.2-1.3-.7-1.8-.5-.5-1.2-.7-2.3-.7h-3z" fill="#0288D1"/>

  <!-- Neural dots -->
  <circle cx="23" cy="7" r="1.5" fill="white" opacity="0.85"/>
  <circle cx="27" cy="10" r="1.2" fill="white" opacity="0.6"/>
  <circle cx="25" cy="4" r="1" fill="white" opacity="0.45"/>
</svg>
