<svg xmlns="http://www.w3.org/2000/svg" viewBox="0 0 120 120" fill="none">
  <defs>
    <linearGradient id="ghostBg" x1="0" y1="0" x2="120" y2="120" gradientUnits="userSpaceOnUse">
      <stop offset="0%" stop-color="#0284C7"/>
      <stop offset="100%" stop-color="#38BDF8"/>
    </linearGradient>
  </defs>

  <!-- Rounded square background -->
  <rect width="120" height="120" rx="28" fill="url(#ghostBg)"/>

  <!-- Ghost body -->
  <path d="M60 24c-18.5 0-30 13-30 30v30c0 2 1 3.5 2.5 3.5 1.8 0 3-1.8 4.5-4 2-3 4.5-6.5 8-6.5s6 3.5 8 6.5c1.5 2.2 2.7 4 4.5 4s3-1.8 4.5-4c2-3 4.5-6.5 8-6.5s6 3.5 8 6.5c1.5 2.2 2.7 4 4.5 4 1.5 0 2.5-1.5 2.5-3.5V54c0-17-11.5-30-30-30z" fill="white" opacity="0.92"/>

  <!-- Eyes -->
  <circle cx="48" cy="56" r="5" fill="#0284C7"/>
  <circle cx="72" cy="56" r="5" fill="#0284C7"/>

  <!-- Eye shine -->
  <circle cx="46" cy="54" r="1.8" fill="white" opacity="0.8"/>
  <circle cx="70" cy="54" r="1.8" fill="white" opacity="0.8"/>

  <!-- Subtle smile -->
  <path d="M52 67c3 3 8 4.5 13 0" stroke="#0284C7" stroke-width="2" stroke-linecap="round" fill="none" opacity="0.5"/>
</svg>
