<svg xmlns="http://www.w3.org/2000/svg" viewBox="0 0 120 120" fill="none">
  <!-- Softer rounded square -->
  <rect width="120" height="120" rx="28" fill="#7c3aed"/>

  <!-- Letter R - slightly bolder -->
  <path d="M36 88V32h24c6 0 10.5 1.5 13.5 4.2 3 2.8 4.5 6.5 4.5 11 0 4-1.2 7.2-3.5 9.8-2.3 2.6-5.5 4.2-9.5 4.8L77 88H65L55 64H48v24H36z" fill="white"/>
  <path d="M48 42v14h10.5c3.2 0 5.5-.8 7-2.3 1.5-1.5 2.3-3.5 2.3-5.7 0-2.2-.8-4-2.3-5.5C64 41 61.7 40 58.5 40H48z" fill="#7c3aed"/>

  <!-- Neural network cluster - more organic spread -->
  <circle cx="82" cy="28" r="5" fill="white" opacity="0.9"/>
  <circle cx="97" cy="38" r="4" fill="white" opacity="0.75"/>
  <circle cx="88" cy="16" r="3.5" fill="white" opacity="0.6"/>
  <circle cx="103" cy="24" r="2.8" fill="white" opacity="0.45"/>
  <circle cx="95" cy="52" r="2.5" fill="white" opacity="0.4"/>

  <!-- Connections -->
  <line x1="73" y1="36" x2="82" y2="28" stroke="white" stroke-width="2" opacity="0.55" stroke-linecap="round"/>
  <line x1="82" y1="28" x2="97" y2="38" stroke="white" stroke-width="1.6" opacity="0.4" stroke-linecap="round"/>
  <line x1="82" y1="28" x2="88" y2="16" stroke="white" stroke-width="1.6" opacity="0.4" stroke-linecap="round"/>
  <line x1="88" y1="16" x2="103" y2="24" stroke="white" stroke-width="1.3" opacity="0.3" stroke-linecap="round"/>
  <line x1="97" y1="38" x2="103" y2="24" stroke="white" stroke-width="1.3" opacity="0.3" stroke-linecap="round"/>
  <line x1="97" y1="38" x2="95" y2="52" stroke="white" stroke-width="1.3" opacity="0.3" stroke-linecap="round"/>
</svg>
